<?xml version="1.0" encoding="UTF-8" standalone="no"?>
<svg
   sodipodi:docname="fiobank-transaction-report.svg"
   inkscape:version="1.2.2 (b0a8486541, 2022-12-01)"
   id="svg8"
   version="1.1"
   viewBox="0 0 100 100"
   height="100mm"
   width="100mm"
   xmlns:inkscape="http://www.inkscape.org/namespaces/inkscape"
   xmlns:sodipodi="http://sodipodi.sourceforge.net/DTD/sodipodi-0.dtd"
   xmlns:xlink="http://www.w3.org/1999/xlink"
   xmlns="http://www.w3.org/2000/svg"
   xmlns:svg="http://www.w3.org/2000/svg"
   xmlns:rdf="http://www.w3.org/1999/02/22-rdf-syntax-ns#"
   xmlns:cc="http://creativecommons.org/ns#"
   xmlns:dc="http://purl.org/dc/elements/1.1/"
   xmlns:ns="&amp;#38;#38;#38;#38;#38;#38;#38;ns_ai;">
  <defs
     id="defs2">
    <inkscape:path-effect
       effect="perspective-envelope"
       up_left_point="-22.859595,140.15918"
       up_right_point="-20.133806,140.17628"
       down_left_point="-28.513404,155.95033"
       down_right_point="-14.536702,155.95033"
       id="path-effect794"
       is_visible="true"
       lpeversion="1"
       deform_type="perspective"
       horizontal_mirror="false"
       vertical_mirror="true"
       overflow_perspective="true" />
    <clipPath
       id="clipPath3444">
      <path
         id="path3446"
         d="M 11.52,162 C 11.52,81.677 135.307,16.56 288,16.56 440.693,16.56 564.48,81.678 564.48,162 564.48,242.322 440.693,307.44 288,307.44 135.307,307.44 11.52,242.32 11.52,162" />
    </clipPath>
    <radialGradient
       id="radialGradient3452"
       cx="0"
       cy="0"
       r="1"
       fx="0"
       fy="0"
       gradientTransform="matrix(363.06,0,0,-363.06,177.52,256.31)"
       gradientUnits="userSpaceOnUse"
       spreadMethod="pad">
      <stop
         id="stop3454"
         offset="0"
         stop-color="#aeb2d5" />
      <stop
         id="stop3456"
         offset="0.3"
         stop-color="#aeb2d5" />
      <stop
         id="stop3458"
         offset="0.75"
         stop-color="#484c89" />
      <stop
         id="stop3460"
         offset="1"
         stop-color="#484c89" />
    </radialGradient>
    <clipPath
       id="clipPath3468">
      <path
         id="path3470"
         d="M 0,324 H 576 V 0 H 0 Z" />
    </clipPath>
    <filter
       style="color-interpolation-filters:sRGB"
       inkscape:label="Drop Shadow"
       id="filter4622"
       x="-0.1215186"
       y="-0.21051334"
       width="1.29367"
       height="1.5087406">
      <feFlood
         flood-opacity="0.498039"
         flood-color="rgb(0,0,0)"
         result="flood"
         id="feFlood4612" />
      <feComposite
         in="flood"
         in2="SourceGraphic"
         operator="in"
         result="composite1"
         id="feComposite4614" />
      <feGaussianBlur
         in="composite1"
         stdDeviation="6"
         result="blur"
         id="feGaussianBlur4616" />
      <feOffset
         dx="6"
         dy="6"
         result="offset"
         id="feOffset4618" />
      <feComposite
         in="SourceGraphic"
         in2="offset"
         operator="over"
         result="fbSourceGraphic"
         id="feComposite4620" />
      <feColorMatrix
         result="fbSourceGraphicAlpha"
         in="fbSourceGraphic"
         values="0 0 0 -1 0 0 0 0 -1 0 0 0 0 -1 0 0 0 0 1 0"
         id="feColorMatrix4624" />
      <feFlood
         id="feFlood4626"
         flood-opacity="0.498039"
         flood-color="rgb(0,0,0)"
         result="flood"
         in="fbSourceGraphic" />
      <feComposite
         in2="fbSourceGraphic"
         id="feComposite4628"
         in="flood"
         operator="in"
         result="composite1" />
      <feGaussianBlur
         id="feGaussianBlur4630"
         in="composite1"
         stdDeviation="6"
         result="blur" />
      <feOffset
         id="feOffset4632"
         dx="6"
         dy="6"
         result="offset" />
      <feComposite
         in2="offset"
         id="feComposite4634"
         in="fbSourceGraphic"
         operator="over"
         result="fbSourceGraphic" />
      <feColorMatrix
         result="fbSourceGraphicAlpha"
         in="fbSourceGraphic"
         values="0 0 0 -1 0 0 0 0 -1 0 0 0 0 -1 0 0 0 0 1 0"
         id="feColorMatrix4636" />
      <feFlood
         id="feFlood4638"
         flood-opacity="0.498039"
         flood-color="rgb(0,0,0)"
         result="flood"
         in="fbSourceGraphic" />
      <feComposite
         in2="fbSourceGraphic"
         id="feComposite4640"
         in="flood"
         operator="in"
         result="composite1" />
      <feGaussianBlur
         id="feGaussianBlur4642"
         in="composite1"
         stdDeviation="6"
         result="blur" />
      <feOffset
         id="feOffset4644"
         dx="6"
         dy="6"
         result="offset" />
      <feComposite
         in2="offset"
         id="feComposite4646"
         in="fbSourceGraphic"
         operator="over"
         result="composite2" />
    </filter>
    <filter
       style="color-interpolation-filters:sRGB"
       inkscape:label="Blur"
       id="filter2058">
      <feGaussianBlur
         stdDeviation="10.5635 0.01"
         result="fbSourceGraphic"
         id="feGaussianBlur2056" />
      <feColorMatrix
         result="fbSourceGraphicAlpha"
         in="fbSourceGraphic"
         values="0 0 0 -1 0 0 0 0 -1 0 0 0 0 -1 0 0 0 0 1 0"
         id="feColorMatrix2060" />
      <feGaussianBlur
         id="feGaussianBlur2062"
         stdDeviation="10.5635 0.01"
         result="blur"
         in="fbSourceGraphic" />
    </filter>
    <linearGradient
       id="XMLID_1_"
       gradientUnits="userSpaceOnUse"
       x1="168.0361"
       y1="168.21001"
       x2="83.149902"
       y2="83.324303">
      <stop
         offset="0"
         style="stop-color:#6D7BB0"
         id="stop164" />
      <stop
         offset="1"
         style="stop-color:#99ACD2"
         id="stop165" />
    </linearGradient>
    <linearGradient
       id="XMLID_2_"
       gradientUnits="userSpaceOnUse"
       x1="168.7178"
       y1="174.6357"
       x2="83.831703"
       y2="89.750298">
      <stop
         offset="0"
         style="stop-color:#6D7BB0"
         id="stop171" />
      <stop
         offset="1"
         style="stop-color:#99ACD2"
         id="stop172" />
    </linearGradient>
    <linearGradient
       id="XMLID_3_"
       gradientUnits="userSpaceOnUse"
       x1="126.9795"
       y1="130.9922"
       x2="233.56219"
       y2="237.576"
       gradientTransform="matrix(0.9929,-0.1191,-0.056,1.0138,7.7556,8.876)">
      <stop
         offset="0"
         style="stop-color:#D8E1ED"
         id="stop178" />
      <stop
         offset="1"
         style="stop-color:#5E76AA"
         id="stop179" />
    </linearGradient>
    <linearGradient
       id="XMLID_4_"
       gradientUnits="userSpaceOnUse"
       x1="126.0381"
       y1="144.81841"
       x2="126.0381"
       y2="77.567299">
      <stop
         offset="0"
         style="stop-color:#808DC2"
         id="stop185" />
      <stop
         offset="1"
         style="stop-color:#5E76AA"
         id="stop186" />
    </linearGradient>
    <linearGradient
       id="XMLID_5_"
       gradientUnits="userSpaceOnUse"
       x1="121.2769"
       y1="91.971703"
       x2="121.2769"
       y2="13.3879"
       gradientTransform="matrix(0.9929,-0.1191,-0.056,1.0138,7.7556,8.876)">
      <stop
         offset="0"
         style="stop-color:#DBE8F2"
         id="stop192" />
      <stop
         offset="0.2847"
         style="stop-color:#D9E6F1"
         id="stop193" />
      <stop
         offset="0.4359"
         style="stop-color:#D1DFED"
         id="stop194" />
      <stop
         offset="0.5557"
         style="stop-color:#C3D3E7"
         id="stop195" />
      <stop
         offset="0.659"
         style="stop-color:#B0C3DF"
         id="stop196" />
      <stop
         offset="0.7518"
         style="stop-color:#97ADD3"
         id="stop197" />
      <stop
         offset="0.837"
         style="stop-color:#7893C5"
         id="stop198" />
      <stop
         offset="0.9163"
         style="stop-color:#5473B5"
         id="stop199" />
      <stop
         offset="0.9891"
         style="stop-color:#2B50A2"
         id="stop200" />
      <stop
         offset="1"
         style="stop-color:#244A9F"
         id="stop201" />
    </linearGradient>
    <radialGradient
       inkscape:collect="always"
       xlink:href="#linearGradient3817-1"
       id="radialGradient3975"
       gradientUnits="userSpaceOnUse"
       gradientTransform="matrix(0.80230346,1.0645012e-7,-1.1897376e-7,0.89669281,180.89104,109.53738)"
       cx="124"
       cy="1021.9267"
       fx="124"
       fy="1021.9267"
       r="21.18899" />
    <linearGradient
       inkscape:collect="always"
       id="linearGradient3817-1">
      <stop
         style="stop-color:#ffffff;stop-opacity:1"
         offset="0"
         id="stop3819-7" />
      <stop
         style="stop-color:#ffbc00;stop-opacity:1"
         offset="1"
         id="stop3821-4" />
    </linearGradient>
    <linearGradient
       id="linearGradient3679">
      <stop
         id="stop3681"
         style="stop-color:#e2e7e4"
         offset="0" />
      <stop
         id="stop3683"
         style="stop-color:#737373"
         offset="1" />
    </linearGradient>
    <radialGradient
       id="radialGradient988"
       xlink:href="#linearGradient3679"
       gradientUnits="userSpaceOnUse"
       cy="239.28"
       cx="-541.81"
       gradientTransform="matrix(1,0,0,0.9864,0,3.2551)"
       r="8.9157"
       inkscape:collect="always" />
    <radialGradient
       id="radialGradient996"
       xlink:href="#linearGradient3679"
       gradientUnits="userSpaceOnUse"
       cy="239.28"
       cx="-541.81"
       gradientTransform="matrix(1,0,0,0.9864,0,3.2551)"
       r="8.9157"
       inkscape:collect="always" />
    <radialGradient
       id="radialGradient1004"
       xlink:href="#linearGradient3679"
       gradientUnits="userSpaceOnUse"
       cy="239.28"
       cx="-541.81"
       gradientTransform="matrix(1,0,0,0.9864,0,3.2551)"
       r="8.9157"
       inkscape:collect="always" />
    <radialGradient
       id="radialGradient1012"
       xlink:href="#linearGradient3679"
       gradientUnits="userSpaceOnUse"
       cy="239.28"
       cx="-541.81"
       gradientTransform="matrix(1,0,0,0.9864,0,3.2551)"
       r="8.9157"
       inkscape:collect="always" />
    <radialGradient
       id="radialGradient1020"
       xlink:href="#linearGradient3679"
       gradientUnits="userSpaceOnUse"
       cy="239.28"
       cx="-541.81"
       gradientTransform="matrix(1,0,0,0.9864,0,3.2551)"
       r="8.9157"
       inkscape:collect="always" />
    <radialGradient
       id="radialGradient1028"
       xlink:href="#linearGradient3679"
       gradientUnits="userSpaceOnUse"
       cy="239.28"
       cx="-541.81"
       gradientTransform="matrix(1,0,0,0.9864,0,3.2551)"
       r="8.9157"
       inkscape:collect="always" />
    <radialGradient
       id="radialGradient1036"
       xlink:href="#linearGradient3679"
       gradientUnits="userSpaceOnUse"
       cy="239.28"
       cx="-541.81"
       gradientTransform="matrix(1,0,0,0.9864,0,3.2551)"
       r="8.9157"
       inkscape:collect="always" />
    <radialGradient
       id="radialGradient1044"
       xlink:href="#linearGradient3679"
       gradientUnits="userSpaceOnUse"
       cy="239.28"
       cx="-541.81"
       gradientTransform="matrix(1,0,0,0.9864,0,3.2551)"
       r="8.9157"
       inkscape:collect="always" />
    <radialGradient
       id="radialGradient1054"
       xlink:href="#linearGradient3679"
       gradientUnits="userSpaceOnUse"
       cy="239.28"
       cx="-541.81"
       gradientTransform="matrix(1,0,0,0.9864,0,3.2551)"
       r="8.9157"
       inkscape:collect="always" />
    <radialGradient
       id="radialGradient1062"
       xlink:href="#linearGradient3679"
       gradientUnits="userSpaceOnUse"
       cy="239.28"
       cx="-541.81"
       gradientTransform="matrix(1,0,0,0.9864,0,3.2551)"
       r="8.9157"
       inkscape:collect="always" />
    <radialGradient
       id="radialGradient1070"
       xlink:href="#linearGradient3679"
       gradientUnits="userSpaceOnUse"
       cy="239.28"
       cx="-541.81"
       gradientTransform="matrix(1,0,0,0.9864,0,3.2551)"
       r="8.9157"
       inkscape:collect="always" />
  </defs>
  <sodipodi:namedview
     inkscape:window-maximized="1"
     inkscape:window-y="0"
     inkscape:window-x="1920"
     inkscape:window-height="1130"
     inkscape:window-width="1920"
     showgrid="false"
     inkscape:document-rotation="0"
     inkscape:current-layer="g2598"
     inkscape:document-units="mm"
     inkscape:cy="244.96199"
     inkscape:cx="150.00765"
     inkscape:zoom="0.9899495"
     inkscape:pageshadow="2"
     inkscape:pageopacity="0.0"
     borderopacity="1.0"
     bordercolor="#666666"
     pagecolor="#ffffff"
     id="base"
     inkscape:showpageshadow="2"
     inkscape:pagecheckerboard="0"
     inkscape:deskcolor="#d1d1d1" />
  <metadata
     id="metadata5">
    <rdf:RDF>
      <cc:Work
         rdf:about="">
        <dc:format>image/svg+xml</dc:format>
        <dc:type
           rdf:resource="http://purl.org/dc/dcmitype/StillImage" />
      </cc:Work>
    </rdf:RDF>
  </metadata>
  <g
     id="layer1"
     inkscape:groupmode="layer"
     inkscape:label="Vrstva 1" />
  <g
     inkscape:label="Vrstva 3"
     id="layer3"
     inkscape:groupmode="layer">
    <g
       transform="matrix(1.4033481,0,0,1.4033481,120.67578,7.0231252)"
       id="g2598">
      <text
         xml:space="preserve"
         style="font-style:normal;font-weight:normal;font-size:23.3548px;line-height:1.25;font-family:sans-serif;fill:#000000;fill-opacity:1;stroke:none;stroke-width:0.583868"
         x="-68.63501"
         y="44.981983"
         id="text2822"><tspan
           sodipodi:role="line"
           id="tspan2820"
           style="stroke-width:0.583868"
           x="-68.63501"
           y="44.981983">{ ; }</tspan></text>
      <g
         transform="matrix(-0.06532899,-0.01036312,0.01036312,-0.06532899,-44.157924,32.084037)"
         id="Layer_2"
         ns:layer="yes"
         ns:editable="no"
         ns:dimmedPercent="50"
         ns:rgbTrio="#FFFF4F004F00"
         style="overflow:visible;stroke:#000000">
        <path
           ns:knockout="Off"
           style="opacity:0.36;fill:none;stroke:none"
           d="M 256,256 H 0 V 0 h 256 z"
           id="path156" />
      </g>
      <g
         transform="matrix(-0.18168841,-0.02882119,-0.02672634,0.16848256,33.783259,-155.04928)"
         id="g3860">
        <path
           style="fill:#ff0000;fill-opacity:1;stroke:#000000;stroke-width:0;stroke-linecap:butt;stroke-linejoin:miter;stroke-miterlimit:4;stroke-opacity:1"
           d="m 271.875,973.65625 a 4.0344005,4.0344005 0 0 0 -3.4375,6 c 3.226,5.7351 4.5764,8.90316 4.59375,11.78125 0.008,1.31802 -0.28507,2.84249 -0.9375,4.6875 a 4.0344005,4.0344005 0 0 0 -6.21875,-1.71875 c -4.44982,3.44377 -8.25517,10.24575 -9.375,19.24995 -1.11983,9.0043 1.10544,20.138 10.15625,30.375 2.52517,2.8562 6.13947,5.8335 11.15625,6.4688 5.01678,0.6353 10.7697,-1.1161 17.5,-5.8125 a 4.0344005,4.0344005 0 0 0 0.5625,-0.5 c 3.4821,-3.556 6.04804,-6.8607 7.46875,-10.875 1.42071,-4.0143 1.57645,-8.3963 1.03125,-13.8125 a 4.0344005,4.0344005 0 0 0 -4.53125,-3.5938 c 0.1601,-7.0257 -1.69637,-12.8818 -5.09375,-17.9687 -4.81607,-7.21116 -11.83808,-13.33457 -19.65625,-22.8125 a 4.0344005,4.0344005 0 0 0 -3.21875,-1.46875 z"
           id="path3828"
           inkscape:connector-curvature="0" />
        <path
           id="path3014"
           style="fill:url(#radialGradient3975);fill-opacity:1;stroke:#000000;stroke-width:0;stroke-linecap:butt;stroke-linejoin:miter;stroke-miterlimit:4;stroke-dasharray:none;stroke-opacity:1"
           d="m 268.3289,997.58 3.24533,8.9247 c 7.58254,-13.5119 6.98022,-17.1142 0.40566,-28.8023 16.03263,19.4363 28.20552,25.0212 22.71733,46.6517 l 5.67933,-4.4624 c 1.03154,10.2476 -0.78047,14.7345 -7.37655,21.4705 -12.48784,8.714 -18.86903,5.0049 -23.30278,-0.01 -16.6711,-18.8561 -7.37716,-39.1454 -1.36832,-43.7741 z"
           inkscape:connector-curvature="0" />
      </g>
      <g
         id="g679"
         transform="matrix(-0.05108133,0.18148547,-0.18148547,-0.05108133,-33.865655,7.5511411)">
        <polygon
           class="st0"
           points="53.1,70 4.8,53.4 52.9,36.8 "
           id="polygon4"
           style="clip-rule:evenodd;fill:#00408a;fill-rule:evenodd" />
        <polygon
           class="st0"
           points="99.9,20.6 153,2.2 153,104.5 99.7,86.1 142.2,71.5 142.2,35.1 "
           id="polygon6"
           style="clip-rule:evenodd;fill:#00408a;fill-rule:evenodd" />
        <polygon
           class="st0"
           points="154.2,67.9 197.1,53.8 154.2,39.9 97.9,20.3 41.3,0.9 41.3,39.9 41.4,67.9 41.4,106.7 97.8,87.1 "
           id="polygon8"
           style="clip-rule:evenodd;fill:#00408a;fill-rule:evenodd" />
        <polygon
           class="st0"
           points="53.1,70 4.8,53.4 52.9,36.8 "
           id="polygon10"
           style="clip-rule:evenodd;fill:#00408a;fill-rule:evenodd" />
        <path
           class="st0"
           d="m 51.4,39 c 0,3.5 0.1,25.3 0.1,28.9 C 48.1,66.7 16.2,55.7 9.5,53.4 16.2,51.1 48,40.2 51.4,39 Z M 0,53.4 54.6,72.2 54.4,34.7 Z"
           id="path12"
           style="clip-rule:evenodd;fill:#00408a;fill-rule:evenodd" />
        <polygon
           class="st0"
           points="99.9,20.6 153,2.2 153,104.5 99.7,86.1 142.2,71.5 142.2,35.1 "
           id="polygon14"
           style="clip-rule:evenodd;fill:#00408a;fill-rule:evenodd" />
        <path
           class="st0"
           d="m 151.4,4.3 c 0,4.1 0,94 0,98 -3.5,-1.2 -40.1,-13.9 -47,-16.2 6.9,-2.4 39.3,-13.5 39.3,-13.5 V 34 c 0,0 -32.2,-11.1 -39.1,-13.4 6.9,-2.4 43.3,-15 46.8,-16.3 z M 95.1,20.6 c 0,0 43.5,14.9 45.5,15.6 0,2 0,32.2 0,34.2 -2,0.7 -45.6,15.7 -45.6,15.7 l 59.5,20.6 V 0 Z"
           id="path16"
           style="clip-rule:evenodd;fill:#00408a;fill-rule:evenodd" />
        <polygon
           class="st0"
           points="154.2,67.9 197.1,53.8 154.2,39.9 97.9,20.3 41.3,0.9 41.3,39.9 41.4,67.9 41.4,106.7 97.8,87.1 "
           id="polygon18"
           style="clip-rule:evenodd;fill:#00408a;fill-rule:evenodd" />
        <path
           class="st1"
           d="m 99.9,20.6 42.3,14.5 v 36.4 l -42.5,14.6 53.2,18.4 V 2.2 Z M 4.8,53.4 53.1,70 53,36.8 Z M 122.6,41.5 h 0.3 c 4.1,-0.6 4.9,7.3 4.9,9.9 0,3.9 -0.4,9.3 -4.6,10.6 0,0 -0.1,0 -0.3,0.1 -4.8,1 -4.8,-8.7 -4.8,-11.6 0,-3.7 0.8,-8 4.5,-9 z m 0.2,21.6 c 0.4,-0.1 0.7,-0.1 1,-0.3 4.9,-2 8.4,-7.7 8.5,-13.3 v -0.9 c 0,-1.5 -0.3,-2.8 -0.8,-4.1 -1.4,-3.6 -5.2,-4.9 -8.7,-4.2 -0.4,0.1 -0.8,0.3 -1.3,0.4 -4.2,1.7 -7.1,6.2 -7.8,10.9 -0.6,3.5 -0.3,8.4 2.9,10.7 1.9,1.3 4.1,1.3 6.2,0.8 z m -21.4,7.7 c 1.1,-0.1 2.8,-1.3 3.5,-2 1.1,-1.3 2.4,-3.8 3.1,-6.7 -1.4,-0.4 0.4,0.1 -1.1,-0.3 -0.3,1.2 -1,2.5 -1.3,3 -0.3,0.4 -1,1.5 -1.4,1.6 l -0.6,0.1 c -0.4,-0.1 -0.4,-2.5 -0.3,-3.2 V 44.9 c -3.9,1.7 -4.6,1.9 -8.7,3.8 0.2,0.9 0.1,1 0.1,0.8 0,0.2 0.1,0.4 0.2,0.8 l 0.7,-0.1 c 0.6,-0.1 1.4,-0.3 1.5,-0.3 0.8,-0.1 0.8,1 0.8,2.5 v 13.3 c 0,1.6 -0.3,4.4 1,4.8 0.1,0 1.2,0.5 2.5,0.3 z M 94.8,49.5 c -0.2,-0.7 -0.1,-0.1 0,0 z m 6.7,-8 c 2,0 3.5,-1.7 3.5,-3.8 0,-2 -1.5,-3.8 -3.5,-3.8 -2.1,0 -3.6,1.7 -3.6,3.8 0,2 1.5,3.8 3.6,3.8 z M 63.2,36.4 c 1.7,-0.3 2.8,-0.3 3.6,0 0.4,0.1 1.1,0.9 1.1,1.6 0,0.4 0.3,1.6 0.3,2.6 v 32.3 c 0,0.9 0.6,5.4 -4.8,8.6 v 2 L 80.3,78 v -2.5 c -2.7,0 -4.2,-1.2 -4.2,-2.8 v -18 C 77.9,54.3 79,54 80,54 c 0.8,0 1.8,0.4 2.4,0.9 0.4,0.3 1,1 1.1,1.6 0.1,0.4 0.6,1.6 0.7,2.5 l 0.6,2.8 H 86 V 42.3 h -1.7 c -0.1,1.4 -0.3,2.8 -0.3,3 -0.1,1 -0.7,2.2 -1,2.9 -0.4,0.9 -1.4,1.9 -2.2,2.3 -1.7,0.9 -3.2,1.2 -4.9,1.7 V 36.1 c 0,-1.7 0,-2.9 1.7,-3.9 l 0.6,-0.3 c 2.8,-1.7 5.9,-0.7 7.4,0.1 1.7,0.7 3.2,4.4 3.8,7.3 l 0.3,1.2 H 91 V 24.9 l -27.9,9.7 v 1.8 z"
           id="path20"
           style="clip-rule:evenodd;fill:#ffffff;fill-rule:evenodd" />
      </g>
    </g>
  </g>
  <g
     inkscape:label="Vrstva 2"
     id="layer2"
     inkscape:groupmode="layer" />
</svg>
