<?xml version="1.0" encoding="UTF-8" standalone="no"?>
<svg
   sodipodi:docname="pohoda-raiffeisenbank.svg"
   inkscape:version="1.2.2 (b0a8486541, 2022-12-01)"
   id="svg8"
   version="1.1"
   viewBox="0 0 100 100"
   height="100mm"
   width="100mm"
   xmlns:inkscape="http://www.inkscape.org/namespaces/inkscape"
   xmlns:sodipodi="http://sodipodi.sourceforge.net/DTD/sodipodi-0.dtd"
   xmlns:xlink="http://www.w3.org/1999/xlink"
   xmlns="http://www.w3.org/2000/svg"
   xmlns:svg="http://www.w3.org/2000/svg"
   xmlns:rdf="http://www.w3.org/1999/02/22-rdf-syntax-ns#"
   xmlns:cc="http://creativecommons.org/ns#"
   xmlns:dc="http://purl.org/dc/elements/1.1/"
   xmlns:ns0="&amp;#38;#38;#38;#38;ns_ai;">
  <defs
     id="defs2">
    <inkscape:path-effect
       effect="perspective-envelope"
       up_left_point="-22.859595,140.15918"
       up_right_point="-20.133806,140.17628"
       down_left_point="-28.513404,155.95033"
       down_right_point="-14.536702,155.95033"
       id="path-effect794"
       is_visible="true"
       lpeversion="1"
       deform_type="perspective"
       horizontal_mirror="false"
       vertical_mirror="true"
       overflow_perspective="true" />
    <clipPath
       id="clipPath3444">
      <path
         id="path3446"
         d="M 11.52,162 C 11.52,81.677 135.307,16.56 288,16.56 440.693,16.56 564.48,81.678 564.48,162 564.48,242.322 440.693,307.44 288,307.44 135.307,307.44 11.52,242.32 11.52,162" />
    </clipPath>
    <radialGradient
       id="radialGradient3452"
       cx="0"
       cy="0"
       r="1"
       fx="0"
       fy="0"
       gradientTransform="matrix(363.06,0,0,-363.06,177.52,256.31)"
       gradientUnits="userSpaceOnUse"
       spreadMethod="pad">
      <stop
         id="stop3454"
         offset="0"
         stop-color="#aeb2d5" />
      <stop
         id="stop3456"
         offset="0.3"
         stop-color="#aeb2d5" />
      <stop
         id="stop3458"
         offset="0.75"
         stop-color="#484c89" />
      <stop
         id="stop3460"
         offset="1"
         stop-color="#484c89" />
    </radialGradient>
    <clipPath
       id="clipPath3468">
      <path
         id="path3470"
         d="M 0,324 H 576 V 0 H 0 Z" />
    </clipPath>
    <filter
       style="color-interpolation-filters:sRGB"
       inkscape:label="Drop Shadow"
       id="filter4622"
       x="-0.1215186"
       y="-0.21051334"
       width="1.29367"
       height="1.5087406">
      <feFlood
         flood-opacity="0.498039"
         flood-color="rgb(0,0,0)"
         result="flood"
         id="feFlood4612" />
      <feComposite
         in="flood"
         in2="SourceGraphic"
         operator="in"
         result="composite1"
         id="feComposite4614" />
      <feGaussianBlur
         in="composite1"
         stdDeviation="6"
         result="blur"
         id="feGaussianBlur4616" />
      <feOffset
         dx="6"
         dy="6"
         result="offset"
         id="feOffset4618" />
      <feComposite
         in="SourceGraphic"
         in2="offset"
         operator="over"
         result="fbSourceGraphic"
         id="feComposite4620" />
      <feColorMatrix
         result="fbSourceGraphicAlpha"
         in="fbSourceGraphic"
         values="0 0 0 -1 0 0 0 0 -1 0 0 0 0 -1 0 0 0 0 1 0"
         id="feColorMatrix4624" />
      <feFlood
         id="feFlood4626"
         flood-opacity="0.498039"
         flood-color="rgb(0,0,0)"
         result="flood"
         in="fbSourceGraphic" />
      <feComposite
         in2="fbSourceGraphic"
         id="feComposite4628"
         in="flood"
         operator="in"
         result="composite1" />
      <feGaussianBlur
         id="feGaussianBlur4630"
         in="composite1"
         stdDeviation="6"
         result="blur" />
      <feOffset
         id="feOffset4632"
         dx="6"
         dy="6"
         result="offset" />
      <feComposite
         in2="offset"
         id="feComposite4634"
         in="fbSourceGraphic"
         operator="over"
         result="fbSourceGraphic" />
      <feColorMatrix
         result="fbSourceGraphicAlpha"
         in="fbSourceGraphic"
         values="0 0 0 -1 0 0 0 0 -1 0 0 0 0 -1 0 0 0 0 1 0"
         id="feColorMatrix4636" />
      <feFlood
         id="feFlood4638"
         flood-opacity="0.498039"
         flood-color="rgb(0,0,0)"
         result="flood"
         in="fbSourceGraphic" />
      <feComposite
         in2="fbSourceGraphic"
         id="feComposite4640"
         in="flood"
         operator="in"
         result="composite1" />
      <feGaussianBlur
         id="feGaussianBlur4642"
         in="composite1"
         stdDeviation="6"
         result="blur" />
      <feOffset
         id="feOffset4644"
         dx="6"
         dy="6"
         result="offset" />
      <feComposite
         in2="offset"
         id="feComposite4646"
         in="fbSourceGraphic"
         operator="over"
         result="composite2" />
    </filter>
    <filter
       style="color-interpolation-filters:sRGB"
       inkscape:label="Blur"
       id="filter2058">
      <feGaussianBlur
         stdDeviation="10.5635 0.01"
         result="fbSourceGraphic"
         id="feGaussianBlur2056" />
      <feColorMatrix
         result="fbSourceGraphicAlpha"
         in="fbSourceGraphic"
         values="0 0 0 -1 0 0 0 0 -1 0 0 0 0 -1 0 0 0 0 1 0"
         id="feColorMatrix2060" />
      <feGaussianBlur
         id="feGaussianBlur2062"
         stdDeviation="10.5635 0.01"
         result="blur"
         in="fbSourceGraphic" />
    </filter>
    <linearGradient
       id="XMLID_1_"
       gradientUnits="userSpaceOnUse"
       x1="168.0361"
       y1="168.21001"
       x2="83.149902"
       y2="83.324303">
      <stop
         offset="0"
         style="stop-color:#6D7BB0"
         id="stop164" />
      <stop
         offset="1"
         style="stop-color:#99ACD2"
         id="stop165" />
    </linearGradient>
    <linearGradient
       id="XMLID_2_"
       gradientUnits="userSpaceOnUse"
       x1="168.7178"
       y1="174.6357"
       x2="83.831703"
       y2="89.750298">
      <stop
         offset="0"
         style="stop-color:#6D7BB0"
         id="stop171" />
      <stop
         offset="1"
         style="stop-color:#99ACD2"
         id="stop172" />
    </linearGradient>
    <linearGradient
       id="XMLID_3_"
       gradientUnits="userSpaceOnUse"
       x1="126.9795"
       y1="130.9922"
       x2="233.56219"
       y2="237.576"
       gradientTransform="matrix(0.9929,-0.1191,-0.056,1.0138,7.7556,8.876)">
      <stop
         offset="0"
         style="stop-color:#D8E1ED"
         id="stop178" />
      <stop
         offset="1"
         style="stop-color:#5E76AA"
         id="stop179" />
    </linearGradient>
    <linearGradient
       id="XMLID_4_"
       gradientUnits="userSpaceOnUse"
       x1="126.0381"
       y1="144.81841"
       x2="126.0381"
       y2="77.567299">
      <stop
         offset="0"
         style="stop-color:#808DC2"
         id="stop185" />
      <stop
         offset="1"
         style="stop-color:#5E76AA"
         id="stop186" />
    </linearGradient>
    <linearGradient
       id="XMLID_5_"
       gradientUnits="userSpaceOnUse"
       x1="121.2769"
       y1="91.971703"
       x2="121.2769"
       y2="13.3879"
       gradientTransform="matrix(0.9929,-0.1191,-0.056,1.0138,7.7556,8.876)">
      <stop
         offset="0"
         style="stop-color:#DBE8F2"
         id="stop192" />
      <stop
         offset="0.2847"
         style="stop-color:#D9E6F1"
         id="stop193" />
      <stop
         offset="0.4359"
         style="stop-color:#D1DFED"
         id="stop194" />
      <stop
         offset="0.5557"
         style="stop-color:#C3D3E7"
         id="stop195" />
      <stop
         offset="0.659"
         style="stop-color:#B0C3DF"
         id="stop196" />
      <stop
         offset="0.7518"
         style="stop-color:#97ADD3"
         id="stop197" />
      <stop
         offset="0.837"
         style="stop-color:#7893C5"
         id="stop198" />
      <stop
         offset="0.9163"
         style="stop-color:#5473B5"
         id="stop199" />
      <stop
         offset="0.9891"
         style="stop-color:#2B50A2"
         id="stop200" />
      <stop
         offset="1"
         style="stop-color:#244A9F"
         id="stop201" />
    </linearGradient>
    <radialGradient
       inkscape:collect="always"
       xlink:href="#linearGradient3817-1"
       id="radialGradient3975"
       gradientUnits="userSpaceOnUse"
       gradientTransform="matrix(0.80230346,1.0645012e-7,-1.1897376e-7,0.89669281,180.89104,109.53738)"
       cx="124"
       cy="1021.9267"
       fx="124"
       fy="1021.9267"
       r="21.18899" />
    <linearGradient
       inkscape:collect="always"
       id="linearGradient3817-1">
      <stop
         style="stop-color:#ffffff;stop-opacity:1"
         offset="0"
         id="stop3819-7" />
      <stop
         style="stop-color:#ffbc00;stop-opacity:1"
         offset="1"
         id="stop3821-4" />
    </linearGradient>
  </defs>
  <sodipodi:namedview
     inkscape:window-maximized="1"
     inkscape:window-y="262"
     inkscape:window-x="1920"
     inkscape:window-height="1176"
     inkscape:window-width="1920"
     showgrid="false"
     inkscape:document-rotation="0"
     inkscape:current-layer="g2598"
     inkscape:document-units="mm"
     inkscape:cy="194.7069"
     inkscape:cx="50.255089"
     inkscape:zoom="1.979899"
     inkscape:pageshadow="2"
     inkscape:pageopacity="0.0"
     borderopacity="1.0"
     bordercolor="#666666"
     pagecolor="#ffffff"
     id="base"
     inkscape:showpageshadow="2"
     inkscape:pagecheckerboard="0"
     inkscape:deskcolor="#d1d1d1" />
  <metadata
     id="metadata5">
    <rdf:RDF>
      <cc:Work
         rdf:about="">
        <dc:format>image/svg+xml</dc:format>
        <dc:type
           rdf:resource="http://purl.org/dc/dcmitype/StillImage" />
        <dc:title />
      </cc:Work>
    </rdf:RDF>
  </metadata>
  <g
     id="layer1"
     inkscape:groupmode="layer"
     inkscape:label="Vrstva 1" />
  <g
     inkscape:label="Vrstva 3"
     id="layer3"
     inkscape:groupmode="layer">
    <g
       transform="matrix(1.4033481,0,0,1.4033481,120.67578,7.0231252)"
       id="g2598">
      <g
         id="g3038"
         transform="matrix(0.89901392,0,0,0.89900108,-90.817885,-587.7317)">
        <path
           fill="#b2b2b2"
           d="m 48.138,704.971 v -3.212 c 0,-4.757 3.885,-8.827 8.521,-9.23 H 21.237 c -0.683,0 -1.237,0.388 -1.237,1.071 v 12.304 c 0,0.685 0.554,1.097 1.237,1.097 h 27.497 c -0.28,-0.401 -0.596,-1.264 -0.596,-2.03 z"
           id="path2988" />
        <path
           fill="#595959"
           d="m 70,672.444 c 0,0.686 -0.555,1.237 -1.238,1.237 H 21.237 c -0.683,0 -1.237,-0.552 -1.237,-1.237 v -12.303 c 0,-0.686 0.554,-1.239 1.237,-1.239 h 47.525 c 0.683,0 1.238,0.554 1.238,1.239 z"
           id="path2990" />
        <circle
           fill="#f79903"
           cx="62.91"
           cy="666.29303"
           r="2.404"
           id="circle2992" />
        <g
           id="g3004">
          <polygon
             fill-rule="evenodd"
             clip-rule="evenodd"
             fill="#ffffff"
             points="40.235,663.401 37.351,669.182 35.06,669.182 37.943,663.401 "
             id="polygon2994" />
          <g
             id="g3002">
            <polygon
               fill-rule="evenodd"
               clip-rule="evenodd"
               fill="#ffffff"
               points="31.82,663.401 28.938,669.182 26.644,669.182 29.527,663.401 "
               id="polygon2996" />
            <polygon
               fill-rule="evenodd"
               clip-rule="evenodd"
               fill="#ffffff"
               points="36.029,663.401 33.144,669.182 30.852,669.182 33.736,663.401 "
               id="polygon2998" />
            <polygon
               fill-rule="evenodd"
               clip-rule="evenodd"
               fill="#ffffff"
               points="44.464,663.401 41.579,669.182 39.285,669.182 42.171,663.401 "
               id="polygon3000" />
          </g>
        </g>
        <path
           fill="#b2b2b2"
           d="m 70,689.291 c 0,0.685 -0.555,1.237 -1.238,1.237 H 21.237 c -0.683,0 -1.237,-0.553 -1.237,-1.237 v -12.304 c 0,-0.684 0.554,-1.237 1.237,-1.237 h 47.525 c 0.683,0 1.238,0.554 1.238,1.237 z"
           id="path3006" />
        <path
           fill="#f79903"
           d="m 65.313,683.141 c 0,1.326 -1.077,2.403 -2.404,2.403 -1.329,0 -2.404,-1.077 -2.404,-2.403 0,-1.331 1.075,-2.406 2.404,-2.406 1.327,-10e-4 2.404,1.075 2.404,2.406 z"
           id="path3008" />
        <g
           id="g3020">
          <polygon
             fill-rule="evenodd"
             clip-rule="evenodd"
             fill="#595959"
             points="40.235,680.249 37.351,686.029 35.06,686.029 37.943,680.249 "
             id="polygon3010" />
          <g
             id="g3018">
            <polygon
               fill-rule="evenodd"
               clip-rule="evenodd"
               fill="#595959"
               points="31.82,680.249 28.938,686.029 26.644,686.029 29.527,680.249 "
               id="polygon3012" />
            <polygon
               fill-rule="evenodd"
               clip-rule="evenodd"
               fill="#595959"
               points="36.029,680.249 33.144,686.029 30.852,686.029 33.736,680.249 "
               id="polygon3014" />
            <polygon
               fill-rule="evenodd"
               clip-rule="evenodd"
               fill="#595959"
               points="44.464,680.249 41.579,686.029 39.285,686.029 42.171,680.249 "
               id="polygon3016" />
          </g>
        </g>
        <g
           id="g3032">
          <polygon
             fill-rule="evenodd"
             clip-rule="evenodd"
             fill="#595959"
             points="40.235,696.86 37.351,702.64 35.06,702.64 37.943,696.86 "
             id="polygon3022" />
          <g
             id="g3030">
            <polygon
               fill-rule="evenodd"
               clip-rule="evenodd"
               fill="#595959"
               points="31.82,696.86 28.938,702.64 26.644,702.64 29.527,696.86 "
               id="polygon3024" />
            <polygon
               fill-rule="evenodd"
               clip-rule="evenodd"
               fill="#595959"
               points="36.029,696.86 33.144,702.64 30.852,702.64 33.736,696.86 "
               id="polygon3026" />
            <polygon
               fill-rule="evenodd"
               clip-rule="evenodd"
               fill="#595959"
               points="44.464,696.86 41.579,702.64 39.285,702.64 42.171,696.86 "
               id="polygon3028" />
          </g>
        </g>
        <g
           id="g3036">
          <path
             fill="#f79903"
             d="m 68.036,706.811 c -1.012,0 -1.839,-0.825 -1.839,-1.84 v -3.212 c 0,-0.855 -0.695,-1.544 -1.552,-1.544 -0.848,0 -1.532,0.688 -1.532,1.544 v 3.212 c 0,1.015 -0.835,1.84 -1.853,1.84 -1.044,0 -1.871,-0.825 -1.871,-1.84 v -3.212 c 0,-0.855 -0.7,-1.544 -1.548,-1.544 -0.849,0 -1.543,0.688 -1.543,1.544 v 3.212 c 0,1.015 -0.832,1.84 -1.847,1.84 -1.015,0 -1.841,-0.825 -1.841,-1.84 v -3.212 c 0,-2.886 2.343,-5.24 5.232,-5.24 1.181,0 2.306,0.398 3.242,1.131 l 0.168,0.139 0.167,-0.139 c 0.931,-0.732 2.049,-1.131 3.227,-1.131 2.898,0 5.246,2.354 5.246,5.24 v 3.212 c -0.002,1.014 -0.835,1.84 -1.856,1.84 z"
             id="path3034" />
        </g>
      </g>
      <g
         transform="matrix(0.06614583,0,0,0.06614583,-56.516832,34.632538)"
         id="Layer_2"
         ns0:layer="yes"
         ns0:editable="no"
         ns0:dimmedPercent="50"
         ns0:rgbTrio="#FFFF4F004F00"
         style="overflow:visible;stroke:#000000">
        <path
           ns0:knockout="Off"
           style="opacity:0.36;fill:none;stroke:none"
           d="M 256,256 H 0 V 0 h 256 z"
           id="path156" />
      </g>
      <g
         transform="matrix(0.18396016,0,0,-0.17058919,-101.95381,230.95647)"
         id="g3860">
        <path
           style="fill:#ff0000;fill-opacity:1;stroke:#000000;stroke-width:0;stroke-linecap:butt;stroke-linejoin:miter;stroke-miterlimit:4;stroke-opacity:1"
           d="m 271.875,973.65625 a 4.0344005,4.0344005 0 0 0 -3.4375,6 c 3.226,5.7351 4.5764,8.90316 4.59375,11.78125 0.008,1.31802 -0.28507,2.84249 -0.9375,4.6875 a 4.0344005,4.0344005 0 0 0 -6.21875,-1.71875 c -4.44982,3.44377 -8.25517,10.24575 -9.375,19.24995 -1.11983,9.0043 1.10544,20.138 10.15625,30.375 2.52517,2.8562 6.13947,5.8335 11.15625,6.4688 5.01678,0.6353 10.7697,-1.1161 17.5,-5.8125 a 4.0344005,4.0344005 0 0 0 0.5625,-0.5 c 3.4821,-3.556 6.04804,-6.8607 7.46875,-10.875 1.42071,-4.0143 1.57645,-8.3963 1.03125,-13.8125 a 4.0344005,4.0344005 0 0 0 -4.53125,-3.5938 c 0.1601,-7.0257 -1.69637,-12.8818 -5.09375,-17.9687 -4.81607,-7.21116 -11.83808,-13.33457 -19.65625,-22.8125 a 4.0344005,4.0344005 0 0 0 -3.21875,-1.46875 z"
           id="path3828"
           inkscape:connector-curvature="0" />
        <path
           id="path3014"
           style="fill:url(#radialGradient3975);fill-opacity:1;stroke:#000000;stroke-width:0;stroke-linecap:butt;stroke-linejoin:miter;stroke-miterlimit:4;stroke-dasharray:none;stroke-opacity:1"
           d="m 268.3289,997.58 3.24533,8.9247 c 7.58254,-13.5119 6.98022,-17.1142 0.40566,-28.8023 16.03263,19.4363 28.20552,25.0212 22.71733,46.6517 l 5.67933,-4.4624 c 1.03154,10.2476 -0.78047,14.7345 -7.37655,21.4705 -12.48784,8.714 -18.86903,5.0049 -23.30278,-0.01 -16.6711,-18.8561 -7.37716,-39.1454 -1.36832,-43.7741 z"
           inkscape:connector-curvature="0" />
      </g>
      <g
         id="g125"
         transform="matrix(1.8046247,0,0,1.8046247,-11.529079,-226.24278)"
         inkscape:path-effect="#path-effect794">
        <path
           inkscape:connector-curvature="0"
           id="path76"
           style="fill:#ffed00;fill-opacity:1;fill-rule:nonzero;stroke:none;stroke-width:0.352778"
           d="m -27.847058,154.79797 h 12.716928 l -5.049442,-14.57126 -2.67562,0 z"
           inkscape:original-d="m -28.241837,155.73873 h 13.51104 V 142.2277 h -13.51104 z" />
        <path
           inkscape:connector-curvature="0"
           id="path78"
           style="fill:#ffed00;fill-opacity:1;fill-rule:nonzero;stroke:none;stroke-width:0.352778"
           d="m -27.710768,153.94262 h 12.179732 l -4.676102,-13.72915 -2.677979,0 z"
           inkscape:original-d="m -28.416457,155.56375 h 13.56924 v -13.39462 h -13.56924 z" />
        <path
           inkscape:connector-curvature="0"
           id="path96"
           style="fill:#000000;fill-opacity:1;fill-rule:nonzero;stroke:none;stroke-width:0.352778"
           d="m -22.887948,140.16773 2.725652,0 5.625594,15.7826 -13.963997,-0.0346 z m -4.565702,13.75161 11.835933,0.0186 -4.591508,-13.68147 -2.6358,-2.3e-4 z"
           inkscape:original-d="m -28.513404,141.96375 h 13.975997 l 7.05e-4,13.98658 -13.976349,-0.006 z m 0.37465,13.595 13.196711,0.004 0.01094,-13.20483 -13.209058,-0.001 z" />
        <path
           d="m -21.533585,143.97999 3.157365,7.11612 0.06475,-3.94865 -2.683384,-4.38907 0.210353,-0.46748 -0.09466,-0.76013 0.11984,-0.22663 0.08683,0.55988 0.21071,0.27072 0.352892,-0.88013 0.204841,0.20766 c -0.04297,-0.13569 -0.199245,-0.55233 -0.500107,-0.83285 -0.295953,-0.2759 -0.496364,-0.11899 -0.563407,-0.0182 l -0.413371,0.6232 0.133155,0.18395 -0.283465,0.46069 -0.28207,-0.46069 0.133465,-0.18395 -0.411934,-0.6232 c -0.06682,-0.10083 -0.266895,-0.25774 -0.563545,0.0183 -0.301365,0.28043 -0.452884,0.69733 -0.495955,0.83288 l 0.19944,-0.20779 0.350883,0.88012 0.212004,-0.27395 0.08726,-0.55664 0.119341,0.22663 -0.0964,0.75806 0.209498,0.46954 -2.647462,4.31453 0.07316,3.87207 z"
           style="fill:#000000;fill-opacity:1;fill-rule:nonzero;stroke:none;stroke-width:0.352778"
           id="path106"
           inkscape:connector-curvature="0"
           inkscape:original-d="m -21.54696,150.63831 4.206875,4.197 1.647119,-1.64606 -4.211461,-4.20794 0.820914,-0.81421 v -1.63724 l 0.585258,-0.58526 0.0014,1.35855 0.571852,0.56268 2.054225,-2.05634 0.555273,0.54892 c 0,-0.35348 -0.104423,-1.57021 -1.081264,-2.52271 -1.094317,-1.0668 -2.189339,-0.44274 -2.566811,-0.066 l -1.98367,1.98402 0.493536,0.49248 -1.093258,1.08973 -1.091847,-1.08973 0.493183,-0.49248 -1.983316,-1.98402 c -0.377473,-0.37677 -1.472495,-1.00083 -2.567164,0.0663 -0.976489,0.95215 -1.058334,2.16958 -1.058334,2.52271 l 0.532695,-0.54927 2.053872,2.05634 0.572558,-0.56974 3.53e-4,-1.35149 0.585258,0.58526 -0.0011,1.63336 0.822325,0.81809 -4.169128,4.16525 1.645003,1.64218 z" />
      </g>
    </g>
  </g>
  <g
     inkscape:label="Vrstva 2"
     id="layer2"
     inkscape:groupmode="layer" />
</svg>
